<?xml version="1.0" encoding="UTF-8"?>
<svg width="200" height="200" viewBox="0 0 200 200" xmlns="http://www.w3.org/2000/svg">
    <!-- Gradient Background -->
    <defs>
        <radialGradient id="bg-gradient" cx="50%" cy="50%" r="50%">
            <stop offset="0%" style="stop-color:#5CDC63"/>
            <stop offset="100%" style="stop-color:#4CAF50"/>
        </radialGradient>
    </defs>
    <circle cx="100" cy="100" r="90" fill="url(#bg-gradient)"/>
    
    <!-- Enhanced Star/Sparkle (top right) -->
    <path d="M140 50
             L148 68 L165 75
             L148 82 L140 100
             L132 82 L115 75
             L132 68 Z"
          fill="white"
          opacity="0.9">
        <animate attributeName="opacity" 
                 values="0.7;1;0.7" 
                 dur="2s" 
                 repeatCount="indefinite"/>
    </path>
    
    <!-- Enhanced Ruler (middle) -->
    <rect x="55" y="90" width="90" height="15" rx="4" fill="white" opacity="0.8"/>
    <path d="M65 90 L65 105 M75 90 L75 100 M85 90 L85 105 M95 90 L95 100 M105 90 L105 105" 
          stroke="#4CAF50" stroke-width="2.5"/>
    
    <!-- Stylized Pen tool (bottom left) -->
    <path d="M50 145
             Q65 130 75 120
             L90 135
             Q80 145 65 160
             Z"
          fill="white"
          opacity="0.95"/>
    
    <!-- Geometric Elements (bottom right) -->
    <circle cx="140" cy="140" r="12" fill="none" stroke="white" stroke-width="3" opacity="0.7"/>
    <rect x="45" y="45" width="20" height="20" 
          fill="none" stroke="white" stroke-width="3" opacity="0.7"
          transform="rotate(15, 55, 55)"/>
</svg>